<mxfile host="app.diagrams.net" modified="2024-03-12T07:23:29.304Z" agent="Mozilla/5.0 (Macintosh; Intel Mac OS X 10_15_7) AppleWebKit/537.36 (KHTML, like Gecko) Chrome/122.0.0.0 Safari/537.36" version="23.1.7" etag="sJkZuy7DyJn3oxOSSSyU" type="github">
  <diagram name="第 1 页" id="BzcY_90deVmakQ2MY9Al">
    <mxGraphModel>
      <root>
        <mxCell id="0" />
        <mxCell id="1" parent="0" />
      </root>
    </mxGraphModel>
  </diagram>
</mxfile>
